<svg id="Capa_1" enable-background="new 0 0 512 512" height="512" viewBox="0 0 512 512" width="512" xmlns="http://www.w3.org/2000/svg"><g><g><path d="m451.723 98.833-84.076-96.272c-1.421-1.628-3.476-2.561-5.636-2.561h-266.438c-4.133 0-7.484 3.351-7.484 7.484v254.762h-22.176c-4.133 0-7.484 3.351-7.484 7.484v146.363c0 4.133 3.351 7.484 7.484 7.484h22.176v80.94c0 4.133 3.351 7.484 7.484 7.484h350.514c4.133 0 7.484-3.351 7.484-7.484v-400.76c-.001-1.811-.657-3.56-1.848-4.924zm-13.12 398.2h-335.547v-73.456h258.954c4.133 0 7.484-3.351 7.484-7.484v-146.363c0-4.133-3.351-7.484-7.484-7.484h-177.227c-4.133 0-7.484 3.351-7.484 7.484s3.351 7.484 7.484 7.484h169.745v131.396h-281.131v-131.397h76.343c4.133 0 7.484-3.351 7.484-7.484s-3.351-7.484-7.484-7.484h-46.683v-247.278h251.471v88.789c0 4.133 3.351 7.484 7.484 7.484h19.579c4.133 0 7.484-3.351 7.484-7.484s-3.351-7.484-7.484-7.484h-12.095v-68.842l60.121 68.843h-13.116c-4.133 0-7.484 3.351-7.484 7.484s3.351 7.484 7.484 7.484h22.104v385.792z"/><path d="m220.226 376.262c4.064.73 7.96-1.968 8.694-6.036l4.563-25.28 7.573 25.667c.026.089.054.177.083.264 1.189 3.543 4.491 5.915 8.224 5.915h.043c3.751-.018 7.05-2.428 8.209-5.996.028-.087.055-.173.08-.261l7.309-25.641 4.856 25.407c.776 4.06 4.698 6.724 8.755 5.946 4.06-.776 6.722-4.696 5.946-8.755l-9.847-51.519c-.786-3.858-4.08-6.708-8.011-6.931-3.938-.222-7.526 2.239-8.743 5.983-.028.086-.055.173-.079.26l-8.621 30.245-8.946-30.32c-.026-.089-.054-.177-.083-.265-1.254-3.734-4.866-6.159-8.804-5.894-3.93.263-7.195 3.148-7.956 7.102l-9.28 51.414c-.735 4.069 1.968 7.961 6.035 8.695z"/><path d="m305.914 376.642c.536.092 13.763.141 19.793.107 4.133-.023 7.465-3.392 7.442-7.525-.023-4.119-3.369-7.442-7.483-7.442-.014 0-.029 0-.043 0-3.335.019-7.481.036-10.962.042v-45.311c0-4.133-3.351-7.484-7.484-7.484s-7.484 3.351-7.484 7.484v52.753c.001 3.645 2.628 6.76 6.221 7.376z"/><path d="m138.795 309.029c-4.133 0-7.484 3.351-7.484 7.484v18.01h-21.569v-18.01c0-4.133-3.351-7.484-7.484-7.484s-7.484 3.351-7.484 7.484v52.797c0 4.133 3.351 7.484 7.484 7.484s7.484-3.351 7.484-7.484v-19.82h21.569v19.82c0 4.133 3.351 7.484 7.484 7.484s7.484-3.351 7.484-7.484v-52.797c0-4.133-3.351-7.484-7.484-7.484z"/><path d="m160.723 316.513c0 4.133 3.351 7.484 7.484 7.484h7.036v45.314c0 4.133 3.351 7.484 7.484 7.484s7.484-3.351 7.484-7.484v-45.314h7.154c4.133 0 7.484-3.351 7.484-7.484s-3.351-7.484-7.484-7.484h-29.157c-4.135 0-7.485 3.351-7.485 7.484z"/></g></g></svg>